<?xml version="1.0" encoding="utf-8"?>
<!-- Generator: Adobe Illustrator 26.3.1, SVG Export Plug-In . SVG Version: 6.00 Build 0)  -->
<svg version="1.1" id="Layer_1" xmlns="http://www.w3.org/2000/svg" xmlns:xlink="http://www.w3.org/1999/xlink" x="0px" y="0px"
	 viewBox="0 0 800 800" style="enable-background:new 0 0 800 800;" xml:space="preserve">
<style type="text/css">
	.st0{font-family:'FjallaOne-Regular';}
	.st1{font-size:200px;}
	.st2{font-size:100px;}
	.st3{fill:#37AB4C;}
</style>
<text transform="matrix(1 0 0 1 250 385.6016)"><tspan x="0" y="0" class="st0 st1">GPS</tspan><tspan x="0" y="120" class="st0 st2">Activity</tspan><tspan x="0" y="240" class="st0 st2">Mapper</tspan></text>
<g>
	<g>
		<path class="st3" d="M31.13,519.94c39.1-9.96,80.28-11.73,120.12-5.29c19.83,3.2,39.35,8.35,58.17,15.38
			c9.34,3.49,18.48,7.48,27.4,11.93c8.83,4.41,18.78,8.92,26.2,15.52c7.64,6.79,9.52,16.47,10.9,26.16
			c1.43,9.99,2.56,20.09,7.79,28.95c2.06,3.5,8.27,3.15,9.14-1.19c1.88-9.44,3.76-18.87,5.64-28.31c1.73-8.7,2.82-17.9,5.66-26.32
			c4.63-13.75,20.56-15.01,32.95-15.1c18.37-0.14,36.76,0.19,55.14,0.3c7.86,0.05,15.92,0.65,23.74-0.34
			c6.56-0.83,13.52-3.01,17.31-8.86c4.74-7.32,1.46-15.79-1.3-23.15c-2.92-7.77-6.1-15.45-9.04-23.21
			c-5.6-14.74-11-30.4-10.12-46.39c0.44-7.94,2.82-15.47,6.81-22.33c4.05-6.96,8.81-13.38,12-20.83c6.14-14.34,7.93-29.9,12.59-44.7
			c2.12-6.71,4.84-14.53,10.03-19.52c1.49-1.44,4.24-3.72,6.54-3.29c2.6,0.48,2.9,3.79,3.03,5.92c0.45,7.48,0.46,14.44,3.38,21.5
			c2.98,7.21,7.98,13.62,14.8,17.56c12.35,7.14,28.84,5.52,37.91-6.02c7.83-9.96,8.65-23.97,5.4-35.85
			c-7.99-29.21-42.17-42.82-47.36-73.29c-2.23-13.08,4.45-27.01,18.89-28.21c6.81-0.57,13.28,2.34,17.58,7.62
			c5,6.14,4.33,12.95,5.11,20.38c1.71,16.22,16.37,26.1,31.92,26.49c16.07,0.41,32.38-7.48,45.73-15.81
			c25.42-15.86,45.1-39.38,61.16-64.35c3.95-6.14,7.68-12.41,11.28-18.75c3.17-5.61-5.46-10.65-8.63-5.05
			c-14.72,26.02-32.17,51.16-55.6,70.11c-11.4,9.22-24.63,17.09-38.7,21.43c-12.45,3.85-32.59,3.96-36.73-11.95
			c-1.07-4.11-0.59-8.49-1.09-12.69c-0.48-4.03-1.58-7.79-3.52-11.37c-3.4-6.29-9.05-11.27-15.64-13.97
			c-13.97-5.73-31.15,0.53-38.24,13.86c-6.95,13.06-3.87,28.82,2.61,41.41c7.09,13.78,19.31,24,29.21,35.66
			c8.51,10.03,14.92,21.56,13.65,35.11c-1.12,12-10.24,21.98-23.07,19.19c-6.85-1.49-12.32-5.8-15.77-11.85
			c-3.78-6.62-3.88-13.37-4.25-20.73c-0.35-6.94-2.93-14.11-10.4-16.01c-7.23-1.84-14.45,3.22-18.71,8.6
			c-9.54,12.06-12.29,28.57-15.71,43.13c-1.77,7.53-3.65,15.18-6.86,22.24c-3.44,7.57-8.66,14.08-12.54,21.4
			c-16.21,30.62,0.07,64.38,11.35,93.63c1.44,3.74,3.01,7.49,4.09,11.35c0.84,2.99,1.28,6.34-1.32,8.59
			c-4.25,3.66-11.27,3.43-16.51,3.4c-18.74-0.08-37.49-0.22-56.23-0.32c-14.36-0.08-30.97-1.57-43.84,6.15
			c-6.38,3.82-10.56,9.73-12.83,16.75c-2.8,8.69-3.95,18.09-5.73,27.03c-1.8,9.02-3.6,18.05-5.39,27.07c3.05-0.4,6.09-0.8,9.14-1.19
			c-9.31-15.78-3.98-36.33-15.15-51.48c-6.29-8.52-16.08-13.61-25.21-18.53c-9.22-4.97-18.72-9.41-28.4-13.41
			c-38.67-15.98-80.79-23.84-122.62-23.2c-23.75,0.36-47.48,3.51-70.5,9.37C22.24,511.88,24.88,521.53,31.13,519.94L31.13,519.94z"
			/>
	</g>
</g>
</svg>
